<!DOCTYPE svg PUBLIC "-//W3C//DTD SVG 1.1//EN" "https://www.w3.org/Graphics/SVG/1.1/DTD/svg11.dtd"><svg xmlns="http://www.w3.org/2000/svg" id="sfn-svg" class="sfn-workflow-graph" width="561" height="937">
    
    
<g transform="translate(12,19.3671875)"><g class="nodes"><g class="node-container" transform="translate(199.142578125,18.5)"><g class="node anchor"><circle class="shape" x="-15.8671875" y="-8.5" r="25.8671875"/><text class="label"><tspan xml:space="preserve" text-anchor="middle" alignment-baseline="central">Start</tspan></text></g></g><g class="node-container" transform="translate(340.76171875,882.81201171875)"><g class="node anchor"><circle class="shape" x="-12.1796875" y="-8.5" r="22.1796875"/><text class="label"><tspan xml:space="preserve" text-anchor="middle" alignment-baseline="central">End</tspan></text></g></g><g class="node-container" transform="translate(199.142578125,80.5)"><g class="node state Pass NotYetStarted"><rect class="shape" rx="5" ry="5" x="-36.75" y="-18.5" width="73.5" height="37"/><text class="label"><tspan xml:space="preserve" text-anchor="middle" alignment-baseline="central">Initialize</tspan></text></g></g><g class="node-container" transform="translate(199.142578125,142.5)"><g class="node state Task NotYetStarted"><rect class="shape" rx="5" ry="5" x="-31.2734375" y="-18.5" width="62.546875" height="37"/><text class="label"><tspan xml:space="preserve" text-anchor="middle" alignment-baseline="central">Search</tspan></text></g></g><g class="node-container" transform="translate(325.76171875,337.60400390625)"><g class="node state Map NotYetStarted Container" transform="translate(-210.73828125,-151.60400390625)"><rect class="shape" rx="5" ry="5" x="-10" y="-10" width="419.4765625" height="301.2080078125"/><rect class="shape" rx="5" ry="5" x="-5" y="-5" width="420.4765625" height="302.2080078125"/><rect class="shape" rx="5" ry="5" x="0" y="0" width="421.4765625" height="303.2080078125"/><g class="branches" transform="translate(20,20)"><g class="branch" transform="translate(0,0)"><g class="nodes"><g class="node-container" transform="translate(207.23828125,18.5260009765625)"><g class="node state Pass NotYetStarted"><rect class="shape" rx="5" ry="5" x="-82.5703125" y="-18.5260009765625" width="165.140625" height="37.052001953125"/><text class="label"><tspan xml:space="preserve" text-anchor="middle" alignment-baseline="central">Extract tags if the exist</tspan></text></g></g><g class="node-container" transform="translate(207.23828125,80.5780029296875)"><g class="node state Choice NotYetStarted"><rect class="shape" rx="5" ry="5" x="-57.609375" y="-18.5260009765625" width="115.21875" height="37.052001953125"/><text class="label"><tspan xml:space="preserve" text-anchor="middle" alignment-baseline="central">Are there tags?</tspan></text></g></g><g class="node-container" transform="translate(120.4921875,142.6300048828125)"><g class="node state Pass NotYetStarted"><rect class="shape" rx="5" ry="5" x="-48.5" y="-18.5260009765625" width="97" height="37.052001953125"/><text class="label"><tspan xml:space="preserve" text-anchor="middle" alignment-baseline="central">Pull Tags up</tspan></text></g></g><g class="node-container" transform="translate(293.984375,142.6300048828125)"><g class="node state Pass NotYetStarted"><rect class="shape" rx="5" ry="5" x="-84.9921875" y="-18.5260009765625" width="169.984375" height="37.052001953125"/><text class="label"><tspan xml:space="preserve" text-anchor="middle" alignment-baseline="central">Set NoTag and NoValue</tspan></text></g></g><g class="node-container" transform="translate(120.4921875,224.6820068359375)"><g class="node state Map NotYetStarted Container" transform="translate(-112.9921875,-38.5260009765625)"><rect class="shape" rx="5" ry="5" x="-10" y="-10" width="223.984375" height="75.052001953125"/><rect class="shape" rx="5" ry="5" x="-5" y="-5" width="224.984375" height="76.052001953125"/><rect class="shape" rx="5" ry="5" x="0" y="0" width="225.984375" height="77.052001953125"/><g class="branches" transform="translate(20,20)"><g class="branch" transform="translate(0,0)"><g class="nodes"><g class="node-container" transform="translate(92.9921875,18.5260009765625)"><g class="node state Pass NotYetStarted"><rect class="shape" rx="5" ry="5" x="-92.9921875" y="-18.5260009765625" width="185.984375" height="37.052001953125"/><text class="label"><tspan xml:space="preserve" text-anchor="middle" alignment-baseline="central">Transform resource to Tag</tspan></text></g></g></g><g class="edges"/></g></g><path class="path" marker-end="url(#arrowhead55)" d="M112.9921875,0L112.9921875,1.6666666666666665C112.9921875,3.333333333333333,112.9921875,6.666666666666666,112.9921875,8.333333333333332C112.9921875,10,112.9921875,10,112.9921875,11.666666666666664C112.9921875,13.333333333333332,112.9921875,16.666666666666664,112.9921875,18.333333333333332L112.9921875,20" style="fill: none;"/></g></g></g><g class="edges"><g class="edge"><path class="path" marker-end="url(#arrowhead56)" d="M207.23828125,37.052001953125L207.23828124999997,39.13533528645833C207.23828125,41.218668619791664,207.23828125,45.38533528645833,207.23828124999997,49.552001953125C207.23828125,53.718668619791664,207.23828125,57.88533528645833,207.23828124999997,59.96866861979166L207.23828125,62.052001953125" style="fill: none;"/><defs><marker id="arrowhead56" viewBox="0 0 10 10" refX="9" refY="5" markerUnits="strokeWidth" markerWidth="8" markerHeight="6" orient="auto"><path d="M 0 0 L 10 5 L 0 10 z"/></marker></defs></g><g class="edge"><path class="path" marker-end="url(#arrowhead57)" d="M155.44113798492123,99.10400390625L149.61631290410102,101.18733723958333C143.79148782328082,103.27067057291666,132.1418376616404,107.43733723958333,126.3170125808202,111.60400390625C120.4921875,115.77067057291666,120.4921875,119.93733723958331,120.4921875,122.02067057291666L120.4921875,124.10400390625" style="fill: none;"/><defs><marker id="arrowhead57" viewBox="0 0 10 10" refX="9" refY="5" markerUnits="strokeWidth" markerWidth="8" markerHeight="6" orient="auto"><path d="M 0 0 L 10 5 L 0 10 z"/></marker></defs></g><g class="edge"><path class="path" marker-end="url(#arrowhead58)" d="M259.0354245150788,99.10400390625L264.86024959589895,101.18733723958333C270.6850746767192,103.27067057291666,282.33472483835953,107.43733723958333,288.15954991917977,111.60400390625C293.984375,115.77067057291666,293.984375,119.93733723958331,293.98437499999994,122.02067057291666L293.984375,124.10400390625" style="fill: none;"/><defs><marker id="arrowhead58" viewBox="0 0 10 10" refX="9" refY="5" markerUnits="strokeWidth" markerWidth="8" markerHeight="6" orient="auto"><path d="M 0 0 L 10 5 L 0 10 z"/></marker></defs></g><g class="edge"><path class="path" marker-end="url(#arrowhead59)" d="M120.4921875,161.156005859375L120.4921875,163.23933919270831C120.4921875,165.32267252604166,120.4921875,169.48933919270831,120.4921875,173.656005859375C120.4921875,177.82267252604166,120.4921875,181.98933919270831,120.4921875,184.07267252604166L120.4921875,186.156005859375" style="fill: none;"/><defs><marker id="arrowhead59" viewBox="0 0 10 10" refX="9" refY="5" markerUnits="strokeWidth" markerWidth="8" markerHeight="6" orient="auto"><path d="M 0 0 L 10 5 L 0 10 z"/></marker></defs></g></g></g></g><path class="path" marker-end="url(#arrowhead60)" d="M210.73828125,0L210.73828125,1.6666666666666665C210.73828125,3.333333333333333,210.73828125,6.666666666666666,213.48828125,8.333333333333332C216.23828125,10,221.73828125,10,224.48828125,11.666666666666664C227.23828125,13.333333333333332,227.23828125,16.666666666666664,227.23828125,18.333333333333332L227.23828125,20" style="fill: none;"/></g></g><g class="node-container" transform="translate(325.76171875,532.7340087890625)"><g class="node state Task NotYetStarted"><rect class="shape" rx="5" ry="5" x="-52.71875" y="-18.5260009765625" width="105.4375" height="37.052001953125"/><text class="label"><tspan xml:space="preserve" text-anchor="middle" alignment-baseline="central">Merge results</tspan></text></g></g><g class="node-container" transform="translate(325.76171875,645.7860107421875)"><g class="node state Map NotYetStarted Container" transform="translate(-77.1953125,-69.5260009765625)"><rect class="shape" rx="5" ry="5" x="-10" y="-10" width="152.390625" height="137.052001953125"/><rect class="shape" rx="5" ry="5" x="-5" y="-5" width="153.390625" height="138.052001953125"/><rect class="shape" rx="5" ry="5" x="0" y="0" width="154.390625" height="139.052001953125"/><g class="branches" transform="translate(20,20)"><g class="branch" transform="translate(0,0)"><g class="nodes"><g class="node-container" transform="translate(57.1953125,18.5)"><g class="node state Pass NotYetStarted"><rect class="shape" rx="5" ry="5" x="-57.1953125" y="-18.5" width="114.390625" height="37"/><text class="label"><tspan xml:space="preserve" text-anchor="middle" alignment-baseline="central">Prep Partitions</tspan></text></g></g><g class="node-container" transform="translate(57.1953125,80.52600002288818)"><g class="node state Task NotYetStarted"><rect class="shape" rx="5" ry="5" x="-41.9609375" y="-18.526000022888184" width="83.921875" height="37.05200004577637"/><text class="label"><tspan xml:space="preserve" text-anchor="middle" alignment-baseline="central">PutObject</tspan></text></g></g></g><g class="edges"><g class="edge"><path class="path" marker-end="url(#arrowhead61)" d="M57.1953125,37L57.195312499999986,39.08333333333333C57.19531249999999,41.166666666666664,57.19531249999999,45.33333333333333,57.195312499999986,49.5C57.19531249999999,53.666666666666664,57.19531249999999,57.83333333333333,57.195312499999986,59.91666666666666L57.1953125,62" style="fill: none;"/><defs><marker id="arrowhead61" viewBox="0 0 10 10" refX="9" refY="5" markerUnits="strokeWidth" markerWidth="8" markerHeight="6" orient="auto"><path d="M 0 0 L 10 5 L 0 10 z"/></marker></defs></g></g></g></g><path class="path" marker-end="url(#arrowhead62)" d="M77.1953125,0L77.1953125,1.6666666666666665C77.1953125,3.333333333333333,77.1953125,6.666666666666666,77.1953125,8.333333333333332C77.1953125,10,77.1953125,10,77.1953125,11.666666666666664C77.1953125,13.333333333333332,77.1953125,16.666666666666664,77.1953125,18.333333333333332L77.1953125,20" style="fill: none;"/></g></g><g class="node-container" transform="translate(325.76171875,758.81201171875)"><g class="node state Choice NotYetStarted"><rect class="shape" rx="5" ry="5" x="-83.5390625" y="-18.5" width="167.078125" height="37"/><text class="label"><tspan xml:space="preserve" text-anchor="middle" alignment-baseline="central">Are there more results?</tspan></text></g></g><g class="node-container" transform="translate(87.5234375,820.81201171875)"><g class="node state Pass NotYetStarted"><rect class="shape" rx="5" ry="5" x="-87.5234375" y="-18.5" width="175.046875" height="37"/><text class="label"><tspan xml:space="preserve" text-anchor="middle" alignment-baseline="central">Drop previous Resources</tspan></text></g></g><g class="node-container" transform="translate(340.76171875,820.81201171875)"><g class="node state Succeed NotYetStarted"><rect class="shape" rx="5" ry="5" x="-34.015625" y="-18.5" width="68.03125" height="37"/><text class="label"><tspan xml:space="preserve" text-anchor="middle" alignment-baseline="central">Success</tspan></text></g></g></g><g class="edges"><g class="edge"><path class="path" marker-end="url(#arrowhead63)" d="M199.142578125,99L199.142578125,101.08333333333333C199.142578125,103.16666666666666,199.142578125,107.33333333333333,199.142578125,111.5C199.142578125,115.66666666666666,199.142578125,119.83333333333331,199.142578125,121.91666666666666L199.142578125,124" style="fill: none;"/><defs><marker id="arrowhead63" viewBox="0 0 10 10" refX="9" refY="5" markerUnits="strokeWidth" markerWidth="8" markerHeight="6" orient="auto"><path d="M 0 0 L 10 5 L 0 10 z"/></marker></defs></g><g class="edge"><path class="path" marker-end="url(#arrowhead64)" d="M199.142578125,44.3671875L199.142578125,45.22265625C199.142578125,46.078125,199.142578125,47.7890625,199.142578125,50.72786458333333C199.142578125,53.666666666666664,199.142578125,57.83333333333333,199.142578125,59.91666666666666L199.142578125,62" style="fill: none;"/><defs><marker id="arrowhead64" viewBox="0 0 10 10" refX="9" refY="5" markerUnits="strokeWidth" markerWidth="8" markerHeight="6" orient="auto"><path d="M 0 0 L 10 5 L 0 10 z"/></marker></defs></g><g class="edge"><path class="path" marker-end="url(#arrowhead65)" d="M230.416015625,150.1566351478505L246.3069661458333,154.04719595654208C262.19791666666663,157.93775676523364,293.9798177083333,165.71887838261682,309.8707682291667,171.69277252464173C325.76171875,177.66666666666666,325.76171875,181.83333333333331,325.76171875,183.91666666666666L325.76171875,186" style="fill: none;"/><defs><marker id="arrowhead65" viewBox="0 0 10 10" refX="9" refY="5" markerUnits="strokeWidth" markerWidth="8" markerHeight="6" orient="auto"><path d="M 0 0 L 10 5 L 0 10 z"/></marker></defs></g><g class="edge"><path class="path" marker-end="url(#arrowhead66)" d="M325.76171875,489.2080078125L325.76171875,491.2913411458333C325.76171875,493.37467447916663,325.76171875,497.5413411458333,325.76171875,501.7080078125C325.76171875,505.87467447916663,325.76171875,510.04134114583326,325.76171875,512.1246744791666L325.76171875,514.2080078125" style="fill: none;"/><defs><marker id="arrowhead66" viewBox="0 0 10 10" refX="9" refY="5" markerUnits="strokeWidth" markerWidth="8" markerHeight="6" orient="auto"><path d="M 0 0 L 10 5 L 0 10 z"/></marker></defs></g><g class="edge"><path class="path" marker-end="url(#arrowhead67)" d="M325.76171875,551.260009765625L325.76171875,553.3433430989583C325.76171875,555.4266764322916,325.76171875,559.5933430989583,325.76171875,563.760009765625C325.76171875,567.9266764322916,325.76171875,572.0933430989583,325.76171875,574.1766764322916L325.76171875,576.260009765625" style="fill: none;"/><defs><marker id="arrowhead67" viewBox="0 0 10 10" refX="9" refY="5" markerUnits="strokeWidth" markerWidth="8" markerHeight="6" orient="auto"><path d="M 0 0 L 10 5 L 0 10 z"/></marker></defs></g><g class="edge"><path class="path" marker-end="url(#arrowhead68)" d="M325.76171875,715.31201171875L325.76171875,717.3953450520833C325.76171875,719.4786783854166,325.76171875,723.6453450520833,325.76171875,727.81201171875C325.76171875,731.9786783854166,325.76171875,736.1453450520833,325.76171875,738.2286783854166L325.76171875,740.31201171875" style="fill: none;"/><defs><marker id="arrowhead68" viewBox="0 0 10 10" refX="9" refY="5" markerUnits="strokeWidth" markerWidth="8" markerHeight="6" orient="auto"><path d="M 0 0 L 10 5 L 0 10 z"/></marker></defs></g><g class="edge"><path class="path" marker-end="url(#arrowhead69)" d="M259.1502961189516,777.31201171875L251.64900978662632,779.3953450520833C244.14772345430106,781.4786783854166,229.14515078965053,785.6453450520833,213.13451360887098,789.8120117187499C197.1238764280914,793.9786783854165,180.10517473118279,798.1453450520833,171.5958238827285,800.2286783854166L163.0864730342742,802.31201171875" style="fill: none;"/><defs><marker id="arrowhead69" viewBox="0 0 10 10" refX="9" refY="5" markerUnits="strokeWidth" markerWidth="8" markerHeight="6" orient="auto"><path d="M 0 0 L 10 5 L 0 10 z"/></marker></defs></g><g class="edge"><path class="path" marker-end="url(#arrowhead70)" d="M334.7133316532258,777.31201171875L335.7213961693548,779.3953450520833C336.72946068548384,781.4786783854166,338.74558971774195,785.6453450520833,339.753654233871,789.8120117187499C340.76171875,793.9786783854165,340.76171875,798.1453450520833,340.76171875,800.2286783854166L340.76171875,802.31201171875" style="fill: none;"/><defs><marker id="arrowhead70" viewBox="0 0 10 10" refX="9" refY="5" markerUnits="strokeWidth" markerWidth="8" markerHeight="6" orient="auto"><path d="M 0 0 L 10 5 L 0 10 z"/></marker></defs></g><g class="edge"><path class="path" marker-end="url(#arrowhead71)" d="M78.57182459677419,802.31201171875L77.56376008064515,800.2286783854165C76.55569556451613,798.1453450520833,74.53956653225805,793.9786783854165,73.53150201612902,786.7286783854165C72.5234375,779.4786783854165,72.5234375,769.1453450520833,72.52343749999999,758.81201171875C72.5234375,748.4786783854166,72.5234375,738.1453450520833,72.52343749999999,719.3076782226562C72.5234375,700.4700113932291,72.5234375,673.1280110677083,72.52343749999999,645.7860107421874C72.5234375,618.4440104166666,72.5234375,591.1020100911458,72.52343749999999,572.260009765625C72.5234375,553.4180094401041,72.5234375,543.0760091145833,72.52343749999999,532.7340087890625C72.5234375,522.3920084635416,72.5234375,512.0500081380208,72.52343749999999,479.52834065755206C72.5234375,447.0066731770833,72.5234375,392.30533854166663,72.52343749999999,337.60400390625C72.5234375,282.9026692708333,72.5234375,228.20133463541666,88.41438802083331,196.96010650901673C104.30533854166666,165.71887838261682,136.08723958333331,157.93775676523364,151.97819010416666,154.04719595654205L167.869140625,150.1566351478505" style="fill: none;"/><defs><marker id="arrowhead71" viewBox="0 0 10 10" refX="9" refY="5" markerUnits="strokeWidth" markerWidth="8" markerHeight="6" orient="auto"><path d="M 0 0 L 10 5 L 0 10 z"/></marker></defs></g><g class="edge"><path class="path" marker-end="url(#arrowhead72)" d="M340.76171875,839.31201171875L340.76171875,841.3953450520831C340.76171875,843.4786783854165,340.76171875,847.6453450520833,340.76171875,851.19873046875C340.76171875,854.7521158854166,340.76171875,857.6922200520833,340.76171875,859.1622721354166L340.76171875,860.63232421875" style="fill: none;"/><defs><marker id="arrowhead72" viewBox="0 0 10 10" refX="9" refY="5" markerUnits="strokeWidth" markerWidth="8" markerHeight="6" orient="auto"><path d="M 0 0 L 10 5 L 0 10 z"/></marker></defs></g></g></g><style xmlns="http://www.w3.org/1999/xhtml">.node &gt; .shape {stroke: #555555;stroke-width: 0.6px;fill: #FFFFFF;} path {stroke: #555;background-color: #555;stroke-width: 1px;} .node.state.NotYetStarted &gt; .shape,.node.state.Container &gt; .shape {stroke-dasharray: 5 2;} .node.state.Failed &gt; .shape,rect.legend.Failed {fill: #DE322F;} .node.state.CaughtError &gt; .shape,rect.legend.CaughtError {fill: #FFA500;} .node.state.Succeeded &gt; .shape,rect.legend.Succeeded {fill: #2BD62E;} .node.state.InProgress &gt; .shape,rect.legend.InProgress {fill: #53c9ed;} .node.state.Cancelled &gt; .shape,rect.legend.Cancelled {fill: #dddddd;} .node.anchor &gt; .shape {fill: #FFDA75;} .node.state.hovered:not(.selected):not(.NotYetStarted) &gt; .shape,.node.selected &gt; .shape {stroke: #555555;stroke-width: 2px;} .node.state.Container.Failed &gt; .shape {fill: #EE9592;} .node.state.Container.CaughtError &gt; .shape {fill: #FFD27F;} .node.state.Container.Succeeded &gt; .shape {fill: #91EA9A;} .node.state.Container.InProgress &gt; .shape {fill :#A9E4F7;} .node.state.Container.Cancelled &gt; .shape {fill: #EEEEEE;} marker {fill: #555555;} .node.anchor,.node.state.NotYetStarted {cursor: default;} .node.state {cursor: pointer;} tspan .label {font-weight: normal;font-size: 12px;text-shadow: none;} </style></svg>